<?xml version="1.0" encoding="UTF-8"?>
<svg  viewBox="0 0 38 38" version="1.1" xmlns="http://www.w3.org/2000/svg" xmlns:xlink="http://www.w3.org/1999/xlink">
    <!-- Generator: Sketch 49.2 (51160) - http://www.bohemiancoding.com/sketch -->
    <title>GooglePlus</title>
    <desc>Created with Sketch.</desc>
    <defs></defs>
    <g id="Page-1" stroke="none" stroke-width="1" fill="none" fill-rule="evenodd">
        <g id="Social-Icons---Isolated" transform="translate(-388.000000, -64.000000)" fill="#fff">
            <path d="M430.716981,76.5508551 L430.716981,76.5508551 L430.716981,76.5508551 L430.716981,76.5508551 Z M403.245283,76.2484248 L403.245283,82.2970297 C403.245283,82.2970297 409.102491,82.2891665 411.487396,82.2891665 C410.195925,86.2103258 408.187774,88.3456346 403.245283,88.3456346 C398.243472,88.3456346 394.339623,84.2835428 394.339623,79.2727273 C394.339623,74.2619118 398.243472,70.19982 403.245283,70.19982 C405.889811,70.19982 407.597736,71.1310027 409.164377,72.4288821 C410.418415,71.1725869 410.31366,70.9935482 413.504151,67.9751431 C410.795774,65.5054977 407.196075,64 403.245283,64 C394.825509,64 388,70.8377966 388,79.2727273 C388,87.7075068 394.825509,94.5454545 403.245283,94.5454545 C415.830491,94.5454545 418.906566,83.5672367 417.886792,76.2484248 L403.245283,76.2484248 L403.245283,76.2484248 Z" id="GooglePlus"></path>
        </g>
    </g>
</svg>